# xmcd
#
# Track frame offsets: 
#        150
#        12668
#        30968
#        47180
#        63545
#        80915
#        116423
#        129050
#        142365
#        162133
#
# Disc length: 2367 seconds
#
# Revision: 0
# Processed by: cddbd v1.5.1PL0 Copyright (c) Steve Scherf et al.
# Submitted via: ExactAudioCopy v0.95a3
#
DISCID=87093d0a
DTITLE=Homesick And The Backstabbers - Push!
DYEAR=1989
DGENRE=Blues Rock
TTITLE0=Party Good
TTITLE1=Push!
TTITLE2=What A Fool I Was
TTITLE3=Upside Your Head
TTITLE4=Keep Me Going
TTITLE5=No Way Back
TTITLE6=Musta Notta Gotta
TTITLE7=Got It Bad
TTITLE8=Gonna Take My Love Back
TTITLE9=Too Much!
EXTD=
EXTT0=
EXTT1=
EXTT2=
EXTT3=
EXTT4=
EXTT5=
EXTT6=
EXTT7=
EXTT8=
EXTT9=
PLAYORDER=
